<?xml version="1.0" encoding="UTF-8" standalone="no"?><svg xmlns="http://www.w3.org/2000/svg" xmlns:xlink="http://www.w3.org/1999/xlink" contentScriptType="application/ecmascript" contentStyleType="text/css" height="305px" preserveAspectRatio="none" style="width:241px;height:305px;background:#FFFFFF;" version="1.1" viewBox="0 0 241 305" width="241px" zoomAndPan="magnify"><defs><filter height="300%" id="f3ybi3ym12pfc" width="300%" x="-1" y="-1"><feGaussianBlur result="blurOut" stdDeviation="2.0"/><feColorMatrix in="blurOut" result="blurOut2" type="matrix" values="0 0 0 0 0 0 0 0 0 0 0 0 0 0 0 0 0 0 .4 0"/><feOffset dx="4.0" dy="4.0" in="blurOut2" result="blurOut3"/><feBlend in="SourceGraphic" in2="blurOut3" mode="normal"/></filter></defs><g><!--MD5=[714a323ea803c80dd4dfd42b424b55c8]
class Restaurant--><rect codeLine="1" fill="#FEFECE" filter="url(#f3ybi3ym12pfc)" height="124.8281" id="Restaurant" style="stroke:#A80036;stroke-width:1.5;" width="128" x="54" y="7"/><ellipse cx="83.85" cy="23" fill="#ADD1B2" rx="11" ry="11" style="stroke:#A80036;stroke-width:1.0;"/><path d="M86.1938,18.6719 C85.2563,18.2344 84.6625,18.0938 83.7875,18.0938 C81.1625,18.0938 79.1625,20.1719 79.1625,22.8906 L79.1625,24.0156 C79.1625,26.5938 81.2719,28.4844 84.1625,28.4844 C85.3813,28.4844 86.5375,28.1875 87.2875,27.6406 C87.8656,27.2344 88.1938,26.7813 88.1938,26.3906 C88.1938,25.9375 87.8031,25.5469 87.3344,25.5469 C87.1156,25.5469 86.9125,25.625 86.725,25.8125 C86.2719,26.2969 86.2719,26.2969 86.0844,26.3906 C85.6625,26.6563 84.975,26.7813 84.2094,26.7813 C82.1625,26.7813 80.8656,25.6875 80.8656,23.9844 L80.8656,22.8906 C80.8656,21.1094 82.1156,19.7969 83.85,19.7969 C84.4281,19.7969 85.0375,19.9531 85.5063,20.2031 C85.9906,20.4844 86.1625,20.7031 86.2563,21.1094 C86.3188,21.5156 86.35,21.6406 86.4906,21.7656 C86.6313,21.9063 86.8656,22.0156 87.0844,22.0156 C87.35,22.0156 87.6156,21.875 87.7875,21.6563 C87.8969,21.5 87.9281,21.3125 87.9281,20.8906 L87.9281,19.4688 C87.9281,19.0313 87.9125,18.9063 87.8188,18.75 C87.6625,18.4844 87.3813,18.3438 87.0844,18.3438 C86.7875,18.3438 86.5844,18.4375 86.3656,18.75 L86.1938,18.6719 Z " fill="#000000"/><text fill="#000000" font-family="sans-serif" font-size="12" lengthAdjust="spacing" textLength="63" x="101.15" y="27.1543">Restaurant</text><line style="stroke:#A80036;stroke-width:1.5;" x1="55" x2="181" y1="39" y2="39"/><text fill="#000000" font-family="sans-serif" font-size="11" lengthAdjust="spacing" textLength="104" x="60" y="53.2104">restaurant_id: text</text><line style="stroke:#A80036;stroke-width:1.0;" x1="55" x2="181" y1="59.8047" y2="59.8047"/><text fill="#000000" font-family="sans-serif" font-size="11" lengthAdjust="spacing" textLength="63" x="60" y="74.0151">name: text</text><text fill="#000000" font-family="sans-serif" font-size="11" lengthAdjust="spacing" textLength="76" x="60" y="86.8198">borough: text</text><text fill="#000000" font-family="sans-serif" font-size="11" lengthAdjust="spacing" textLength="70" x="60" y="99.6245">cuisine: text</text><text fill="#000000" font-family="sans-serif" font-size="11" lengthAdjust="spacing" textLength="116" x="60" y="112.4292">address: Address {}</text><text fill="#000000" font-family="sans-serif" font-size="11" lengthAdjust="spacing" textLength="93" x="60" y="125.2339">grades: Grade []</text><!--MD5=[0f39e4cb6f03951afbf6d14bd2505654]
class Address--><rect codeLine="12" fill="#FEFECE" filter="url(#f3ybi3ym12pfc)" height="99.2188" id="Address" style="stroke:#A80036;stroke-width:1.5;" width="94" x="7" y="192"/><ellipse cx="26.95" cy="208" fill="#ADD1B2" rx="11" ry="11" style="stroke:#A80036;stroke-width:1.0;"/><path d="M29.2938,203.6719 C28.3563,203.2344 27.7625,203.0938 26.8875,203.0938 C24.2625,203.0938 22.2625,205.1719 22.2625,207.8906 L22.2625,209.0156 C22.2625,211.5938 24.3719,213.4844 27.2625,213.4844 C28.4813,213.4844 29.6375,213.1875 30.3875,212.6406 C30.9656,212.2344 31.2938,211.7813 31.2938,211.3906 C31.2938,210.9375 30.9031,210.5469 30.4344,210.5469 C30.2156,210.5469 30.0125,210.625 29.825,210.8125 C29.3719,211.2969 29.3719,211.2969 29.1844,211.3906 C28.7625,211.6563 28.075,211.7813 27.3094,211.7813 C25.2625,211.7813 23.9656,210.6875 23.9656,208.9844 L23.9656,207.8906 C23.9656,206.1094 25.2156,204.7969 26.95,204.7969 C27.5281,204.7969 28.1375,204.9531 28.6063,205.2031 C29.0906,205.4844 29.2625,205.7031 29.3563,206.1094 C29.4188,206.5156 29.45,206.6406 29.5906,206.7656 C29.7313,206.9063 29.9656,207.0156 30.1844,207.0156 C30.45,207.0156 30.7156,206.875 30.8875,206.6563 C30.9969,206.5 31.0281,206.3125 31.0281,205.8906 L31.0281,204.4688 C31.0281,204.0313 31.0125,203.9063 30.9188,203.75 C30.7625,203.4844 30.4813,203.3438 30.1844,203.3438 C29.8875,203.3438 29.6844,203.4375 29.4656,203.75 L29.2938,203.6719 Z " fill="#000000"/><text fill="#000000" font-family="sans-serif" font-size="12" lengthAdjust="spacing" textLength="51" x="42.05" y="212.1543">Address</text><line style="stroke:#A80036;stroke-width:1.5;" x1="8" x2="100" y1="224" y2="224"/><text fill="#000000" font-family="sans-serif" font-size="11" lengthAdjust="spacing" textLength="74" x="13" y="238.2104">building: text</text><text fill="#000000" font-family="sans-serif" font-size="11" lengthAdjust="spacing" textLength="82" x="13" y="251.0151">coord: float [2]</text><text fill="#000000" font-family="sans-serif" font-size="11" lengthAdjust="spacing" textLength="64" x="13" y="263.8198">street: text</text><text fill="#000000" font-family="sans-serif" font-size="11" lengthAdjust="spacing" textLength="75" x="13" y="276.6245">zipcode: text</text><line style="stroke:#A80036;stroke-width:1.5;" x1="8" x2="100" y1="283.2188" y2="283.2188"/><!--MD5=[64e7a81d370390ac66d73872e4f36773]
class Grade--><rect codeLine="20" fill="#FEFECE" filter="url(#f3ybi3ym12pfc)" height="86.4141" id="Grade" style="stroke:#A80036;stroke-width:1.5;" width="91" x="136.5" y="198.5"/><ellipse cx="161.4" cy="214.5" fill="#ADD1B2" rx="11" ry="11" style="stroke:#A80036;stroke-width:1.0;"/><path d="M163.7438,210.1719 C162.8063,209.7344 162.2125,209.5938 161.3375,209.5938 C158.7125,209.5938 156.7125,211.6719 156.7125,214.3906 L156.7125,215.5156 C156.7125,218.0938 158.8219,219.9844 161.7125,219.9844 C162.9313,219.9844 164.0875,219.6875 164.8375,219.1406 C165.4156,218.7344 165.7438,218.2813 165.7438,217.8906 C165.7438,217.4375 165.3531,217.0469 164.8844,217.0469 C164.6656,217.0469 164.4625,217.125 164.275,217.3125 C163.8219,217.7969 163.8219,217.7969 163.6344,217.8906 C163.2125,218.1563 162.525,218.2813 161.7594,218.2813 C159.7125,218.2813 158.4156,217.1875 158.4156,215.4844 L158.4156,214.3906 C158.4156,212.6094 159.6656,211.2969 161.4,211.2969 C161.9781,211.2969 162.5875,211.4531 163.0563,211.7031 C163.5406,211.9844 163.7125,212.2031 163.8063,212.6094 C163.8688,213.0156 163.9,213.1406 164.0406,213.2656 C164.1813,213.4063 164.4156,213.5156 164.6344,213.5156 C164.9,213.5156 165.1656,213.375 165.3375,213.1563 C165.4469,213 165.4781,212.8125 165.4781,212.3906 L165.4781,210.9688 C165.4781,210.5313 165.4625,210.4063 165.3688,210.25 C165.2125,209.9844 164.9313,209.8438 164.6344,209.8438 C164.3375,209.8438 164.1344,209.9375 163.9156,210.25 L163.7438,210.1719 Z " fill="#000000"/><text fill="#000000" font-family="sans-serif" font-size="12" lengthAdjust="spacing" textLength="37" x="177.6" y="218.6543">Grade</text><line style="stroke:#A80036;stroke-width:1.5;" x1="137.5" x2="226.5" y1="230.5" y2="230.5"/><text fill="#000000" font-family="sans-serif" font-size="11" lengthAdjust="spacing" textLength="59" x="142.5" y="244.7104">date: date</text><text fill="#000000" font-family="sans-serif" font-size="11" lengthAdjust="spacing" textLength="63" x="142.5" y="257.5151">grade: text</text><text fill="#000000" font-family="sans-serif" font-size="11" lengthAdjust="spacing" textLength="79" x="142.5" y="270.3198">score: integer</text><line style="stroke:#A80036;stroke-width:1.5;" x1="137.5" x2="226.5" y1="276.9141" y2="276.9141"/><!--MD5=[6d4ebcb0963e1dbcf224c3909f94bb2f]
reverse link Restaurant to Address--><path codeLine="26" d="M89.9817,144.924 C84.0111,160.783 77.8526,177.142 72.3552,191.7439 " fill="none" id="Restaurant-backto-Address" style="stroke:#A80036;stroke-width:1.0;"/><polygon fill="#FFFFFF" points="94.7135,132.355,88.8561,136.5611,90.4858,143.5856,96.3432,139.3795,94.7135,132.355" style="stroke:#A80036;stroke-width:1.0;"/><!--MD5=[2956e8c81760fade55dc7c24350f3d49]
reverse link Restaurant to Grade--><path codeLine="27" d="M145.903,144.618 C152.828,163.011 160.012,182.095 166.131,198.3487 " fill="none" id="Restaurant-backto-Grade" style="stroke:#A80036;stroke-width:1.0;"/><polygon fill="#FFFFFF" points="141.287,132.355,139.6575,139.3796,145.5149,143.5855,147.1445,136.561,141.287,132.355" style="stroke:#A80036;stroke-width:1.0;"/><!--MD5=[1db0f342437ad5790ba05453252752e8]
@startuml
class Restaurant {
  restaurant_id: text
  - -
  name: text
  borough: text
  cuisine: text
  address: Address {}
  grades: Grade []
}


class Address {
  building: text
  coord: float [2]
  street: text
  zipcode: text
}


class Grade {
  date: date
  grade: text
  score: integer
}

Restaurant o- -  Address
Restaurant  o- -  Grade
@enduml

PlantUML version 1.2021.13beta3(Unknown compile time)
(GPL source distribution)
Java Runtime: Java(TM) SE Runtime Environment
JVM: Java HotSpot(TM) 64-Bit Server VM
Default Encoding: UTF-8
Language: en
Country: US
--></g></svg>